<svg width="70" height="70" viewBox="0 0 70 70" fill="none" xmlns="http://www.w3.org/2000/svg">
<circle cx="35" cy="35" r="31.5" fill="#551C77" stroke="#551C77" stroke-width="7"/>
<path d="M52 25.15C52 25.455 51.8806 25.7475 51.6681 25.9632C51.4555 26.1788 51.1672 26.3 50.8667 26.3H44.0667V32.05C44.0667 32.355 43.9473 32.6475 43.7347 32.8632C43.5222 33.0788 43.2339 33.2 42.9333 33.2H36.1333V38.95C36.1333 39.255 36.0139 39.5475 35.8014 39.7632C35.5888 39.9788 35.3006 40.1 35 40.1H28.2V45.85C28.2 46.155 28.0806 46.4475 27.8681 46.6632C27.6555 46.8788 27.3672 47 27.0667 47H19.1333C18.8328 47 18.5445 46.8788 18.3319 46.6632C18.1194 46.4475 18 46.155 18 45.85C18 45.545 18.1194 45.2525 18.3319 45.0368C18.5445 44.8212 18.8328 44.7 19.1333 44.7H25.9333V38.95C25.9333 38.645 26.0527 38.3525 26.2653 38.1368C26.4778 37.9212 26.7661 37.8 27.0667 37.8H33.8667V32.05C33.8667 31.745 33.9861 31.4525 34.1986 31.2368C34.4112 31.0212 34.6994 30.9 35 30.9H41.8V25.15C41.8 24.845 41.9194 24.5525 42.1319 24.3368C42.3445 24.1212 42.6328 24 42.9333 24H50.8667C51.1672 24 51.4555 24.1212 51.6681 24.3368C51.8806 24.5525 52 24.845 52 25.15Z" fill="white"/>
</svg>
